<svg width="12" height="12" viewBox="0 0 12 12" fill="none" xmlns="http://www.w3.org/2000/svg">
<path d="M0.750081 10.0833V1.33333C0.750081 1.17862 0.811539 1.03025 0.920936 0.920854C1.03033 0.811458 1.17871 0.75 1.33341 0.75H6.58341C6.73812 0.75 6.8865 0.811458 6.99589 0.920854C7.10529 1.03025 7.16675 1.17862 7.16675 1.33333V6H8.33341C8.64283 6 8.93958 6.12292 9.15837 6.34171C9.37716 6.5605 9.50008 6.85725 9.50008 7.16667V9.5C9.50008 9.65471 9.56154 9.80308 9.67093 9.91248C9.78033 10.0219 9.92871 10.0833 10.0834 10.0833C10.2381 10.0833 10.3865 10.0219 10.4959 9.91248C10.6053 9.80308 10.6667 9.65471 10.6667 9.5V5.41667H9.50008C9.34537 5.41667 9.197 5.35521 9.0876 5.24581C8.97821 5.13642 8.91675 4.98804 8.91675 4.83333V2.7415L7.95016 1.77492L8.775 0.950083L11.6625 3.83758C11.7167 3.89168 11.7598 3.95596 11.7891 4.02674C11.8184 4.09751 11.8335 4.17339 11.8334 4.25V9.5C11.8334 9.96413 11.649 10.4092 11.3209 10.7374C10.9927 11.0656 10.5475 11.25 10.0834 11.25C9.61929 11.25 9.17417 11.0656 8.84598 10.7374C8.51779 10.4092 8.33341 9.96413 8.33341 9.5V7.16667H7.16675V10.0833H7.75008V11.25H0.166748V10.0833H0.750081ZM1.91675 1.91667V5.41667H6.00008V1.91667H1.91675Z" fill="#49454E"/>
</svg>
