<svg width="14" height="14" viewBox="0 0 14 14" fill="none" xmlns="http://www.w3.org/2000/svg">
<path fill-rule="evenodd" clip-rule="evenodd" d="M3.59558 1.16968C4.88594 0.416181 6.38985 0.112098 7.87159 0.305083C9.35334 0.498069 10.7292 1.17722 11.7835 2.23609C12.8378 3.29497 13.511 4.67373 13.6976 6.15629C13.7494 6.56726 13.4581 6.94235 13.0472 6.99408C12.6362 7.0458 12.2611 6.75457 12.2094 6.3436C12.0642 5.19046 11.5406 4.11806 10.7206 3.29447C9.9005 2.47087 8.83037 1.94263 7.67786 1.79252C6.52536 1.64242 5.35562 1.87893 4.35197 2.46501C3.68897 2.85216 3.12319 3.3774 2.68993 3.99995H4.75C5.16421 3.99995 5.5 4.33573 5.5 4.74995C5.5 5.16416 5.16421 5.49995 4.75 5.49995H1C0.585786 5.49995 0.25 5.16416 0.25 4.74995V0.999947C0.25 0.585733 0.585786 0.249947 1 0.249947C1.41421 0.249947 1.75 0.585733 1.75 0.999947V2.75512C2.2607 2.12342 2.88466 1.58481 3.59558 1.16968ZM0.952306 7.00589C1.36324 6.95386 1.73854 7.24482 1.79056 7.65575C1.93649 8.80848 2.46054 9.88028 3.28068 10.7034C4.10082 11.5264 5.17073 12.0543 6.32293 12.2044C7.47513 12.3544 8.64457 12.1182 9.64815 11.5326C10.3107 11.146 10.8763 10.6216 11.3097 9.99995H9.25C8.83579 9.99995 8.5 9.66416 8.5 9.24995C8.5 8.83573 8.83579 8.49995 9.25 8.49995H13C13.4142 8.49995 13.75 8.83573 13.75 9.24995V12.9999C13.75 13.4142 13.4142 13.7499 13 13.7499C12.5858 13.7499 12.25 13.4142 12.25 12.9999V11.2439C11.7391 11.8752 11.115 12.4134 10.4041 12.8282C9.11389 13.581 7.61048 13.8847 6.12922 13.6918C4.64796 13.4989 3.27248 12.8203 2.21812 11.7621C1.16376 10.704 0.490043 9.32608 0.302438 7.84414C0.250417 7.43321 0.541372 7.05791 0.952306 7.00589Z" fill="#49454E"/>
</svg>
